<?xml version="1.0" encoding="UTF-8" standalone="no"?>
<!DOCTYPE svg PUBLIC "-//W3C//DTD SVG 1.1//EN" "http://www.w3.org/Graphics/SVG/1.1/DTD/svg11.dtd">
<svg width="100%" height="100%" viewBox="0 0 8000 8000" version="1.1" xmlns="http://www.w3.org/2000/svg" xmlns:xlink="http://www.w3.org/1999/xlink" xml:space="preserve" xmlns:serif="http://www.serif.com/" style="fill-rule:evenodd;clip-rule:evenodd;stroke-linejoin:round;stroke-miterlimit:2;">
    <g id="Page-1" serif:id="Page 1" transform="matrix(4.166667,0,0,4.166667,0,0)">
        <rect x="0" y="0" width="1920" height="1920" style="fill:none;"/>
        <g id="Capa-1" serif:id="Capa 1">
            <g transform="matrix(1,0,0,1,792.5303,279.6256)">
                <path d="M0,74.496C53.321,59.789 109.471,51.898 167.47,51.898C225.468,51.898 281.617,59.789 334.938,74.496C341.14,58.996 347.553,42.819 354.191,25.947C294.859,9.052 232.223,0 167.47,0C102.718,0 40.079,9.052 -19.253,25.947C-12.615,42.819 -6.201,58.996 0,74.496" style="fill:rgb(250,174,59);fill-rule:nonzero;"/>
            </g>
            <g transform="matrix(-0.472611,0.881271,0.881271,0.472611,1476.763429,340.41277)">
                <path d="M167.194,-245.906C152.059,-132.618 168.452,-18.174 212.649,85.077C198.112,93.358 182.95,101.932 167.194,110.8C116.888,-4.066 98.505,-132.063 116.489,-258.494C134.104,-254.17 150.996,-249.979 167.194,-245.906" style="fill:rgb(250,174,59);fill-rule:nonzero;"/>
            </g>
            <g transform="matrix(-0.900111,-0.43566,-0.43566,0.900111,225.153151,853.239611)">
                <path d="M-84.994,-307.348C-68.801,-311.392 -51.907,-315.557 -34.298,-319.85C-16.873,-198.158 -32.203,-70.511 -84.994,49.497C-100.772,40.582 -115.905,31.99 -130.394,23.704C-84.095,-84.011 -70.292,-198.161 -84.994,-307.348" style="fill:rgb(250,174,59);fill-rule:nonzero;"/>
            </g>
            <g transform="matrix(0.984196,-0.177081,-0.177081,-0.984196,1618.179262,924.09806)">
                <path d="M-31.187,-1.79C-15.002,-5.867 1.887,-10.066 19.486,-14.401C37.998,115.392 18.372,242.44 -31.187,354.95C-46.988,346.07 -62.138,337.505 -76.639,329.247C-33.072,228.058 -15.614,114.41 -31.187,-1.79" style="fill:rgb(250,174,59);fill-rule:nonzero;"/>
            </g>
            <g transform="matrix(0.900106,0.43567,0.43567,-0.900106,1429.505651,1258.131345)">
                <path d="M70.468,-19.489C86.662,-23.538 103.558,-27.706 121.168,-32C138.587,89.697 123.261,217.339 70.468,337.352C54.686,328.436 39.555,319.838 25.068,311.548C71.366,203.843 85.17,89.693 70.468,-19.489" style="fill:rgb(250,174,59);fill-rule:nonzero;"/>
            </g>
            <g transform="matrix(-0.984194,0.177094,0.177094,0.984194,413.829716,1328.990925)">
                <path d="M20.067,-349.442C36.252,-353.523 53.139,-357.727 70.735,-362.062C89.25,-232.264 69.626,-105.219 20.067,7.295C4.265,-1.588 -10.884,-10.155 -25.386,-18.412C18.183,-119.597 35.639,-233.246 20.067,-349.442" style="fill:rgb(250,174,59);fill-rule:nonzero;"/>
            </g>
            <g transform="matrix(1,0,0,1,1127.4688,1640.3689)">
                <path d="M0,-74.49C-53.321,-59.789 -109.471,-51.892 -167.469,-51.892C-225.467,-51.892 -281.615,-59.789 -334.937,-74.49C-341.139,-58.99 -347.551,-42.808 -354.19,-25.941C-294.858,-9.046 -232.22,0 -167.469,0C-102.716,0 -40.079,-9.046 19.253,-25.941C12.614,-42.808 6.201,-58.99 0,-74.49" style="fill:rgb(250,174,59);fill-rule:nonzero;"/>
            </g>
            <g transform="matrix(-0.692634,-0.721289,-0.721289,0.692634,1170.80543,1479.594768)">
                <path d="M-102.195,-290.658C-116.921,-179.322 -101.865,-64.695 -56.76,40.326C-71.259,48.611 -86.401,57.201 -102.195,66.109C-153.59,-50.792 -170.385,-179.009 -152.893,-303.184C-135.33,-298.892 -118.418,-294.719 -102.195,-290.658" style="fill:rgb(250,174,59);fill-rule:nonzero;"/>
            </g>
            <g transform="matrix(0.692643,0.72128,0.72128,-0.692643,414.377849,448.519714)">
                <path d="M123.861,-43.549C109.128,67.794 124.188,182.422 169.296,287.443C154.796,295.727 139.659,304.315 123.861,313.226C72.467,196.321 55.671,68.106 73.156,-56.068C90.727,-51.781 107.633,-47.604 123.861,-43.549" style="fill:rgb(250,174,59);fill-rule:nonzero;"/>
            </g>
            <g transform="matrix(0.472601,-0.881277,-0.881277,-0.472601,720.331538,1371.487495)">
                <path d="M-147.158,-100.058C-162.292,13.228 -145.897,127.672 -101.706,230.918C-116.237,239.199 -131.396,247.776 -147.158,256.644C-197.464,141.778 -215.849,13.782 -197.865,-112.645C-180.248,-108.322 -163.357,-104.13 -147.158,-100.058" style="fill:rgb(250,174,59);fill-rule:nonzero;"/>
            </g>
            <g transform="matrix(1,0,0,1,1838.2627,959.9974)">
                <path d="M0,0.005C-528.186,30.203 -669.772,37.633 -377.405,162.782C-687.791,93.13 -577.949,182.313 -167.768,516.369C-612.34,229.57 -731.211,152.543 -568.915,426.044C-778.465,186.93 -741.829,323.85 -606.839,835.474C-797.323,341.868 -848.062,209.847 -878.263,526.454C-908.464,209.847 -959.201,341.868 -1149.686,835.474C-1014.696,323.85 -978.059,186.93 -1187.609,426.044C-1025.313,152.543 -1144.187,229.565 -1588.756,516.369C-1178.576,182.313 -1068.734,93.13 -1379.121,162.782C-1086.753,37.633 -1228.338,30.203 -1756.525,0.005C-1228.338,-30.197 -1086.754,-37.628 -1379.121,-162.777C-1068.734,-93.129 -1178.576,-182.307 -1588.758,-516.359C-1144.188,-229.565 -1025.313,-152.542 -1187.609,-426.044C-978.059,-186.93 -1014.696,-323.849 -1149.687,-835.469C-959.202,-341.867 -908.464,-209.847 -878.263,-526.453C-848.062,-209.847 -797.323,-341.867 -606.841,-835.469C-741.829,-323.849 -778.466,-186.93 -568.916,-426.039C-731.213,-152.533 -612.34,-229.565 -167.768,-516.359C-577.949,-182.312 -687.791,-93.129 -377.405,-162.777C-669.772,-37.628 -528.186,-30.197 0,0.005" style="fill:rgb(254,193,0);fill-rule:nonzero;"/>
            </g>
        </g>
    </g>
</svg>
